#!OML:ASF X:\für Bonn\!DataBase\2005_08_10_Bjorn_Final\c3d\bjorn.ASF
:FULLY-SPECIFIED
:DEGREES
466
root 0.735358 18.8746 12.3153 -178.019 6.91005 179.449
lowerback -0.899913 0.239422 1.42854
upperback 12.5435 1.75271 0.0275049
thorax 14.2215 1.61612 -0.380313
lowerneck 1.80889 0.0135011 3.75107
upperneck 12.3427 2.45413 -12.7429
head 3.5159 1.33222 -4.4431
rclavicle -4.37326e-015 8.74653e-015
rhumerus -26.0494 -39.9675 -70.2634
rradius 24.9546
rwrist 10.6112
rhand -16.402 -0.749023
rfingers 7.12502
rthumb 9.8123 -30.5004
lclavicle -4.37326e-015 8.74653e-015
lhumerus 162.93 182.614 263.483
lradius 20.2534
lwrist -28.0522
lhand -16.2276 -7.60958
lfingers 7.12502
lthumb 9.98056 22.1338
rfemur 514.851 -162.981 -520.554
rtibia 39.9849
rfoot -13.5366 13.9695
rtoes -10.4733
lfemur 363.606 5.26099 342.366
ltibia 30.2141
lfoot -18.7442 4.61928
ltoes -28.7322
467
root 0.711802 18.8668 12.3872 -177.917 6.60962 179.557
lowerback -0.875083 0.204132 1.29791
upperback 12.4441 1.69728 -0.00352458
thorax 14.0796 1.568 -0.35527
lowerneck 1.77417 0.0524427 3.7562
upperneck 12.2745 2.44325 -12.4931
head 3.49968 1.32629 -4.36563
rclavicle -1.799e-014 4.37326e-015
rhumerus -24.1565 -38.0859 -72.3577
rradius 25.9423
rwrist 9.85677
rhand -16.3754 -0.764751
rfingers 7.12502
rthumb 9.83796 -30.5149
lclavicle -1.799e-014 4.37326e-015
lhumerus 164.08 184.613 263.67
lradius 21.1884
lwrist -26.7016
lhand -16.377 -7.53626
lfingers 7.12502
lthumb 9.83646 22.214
rfemur 514.429 -162.716 -520.392
rtibia 40.0832
rfoot -13.2786 13.9112
rtoes -10.214
lfemur 363.861 5.21925 342.463
ltibia 29.2392
lfoot -18.7635 4.72118
ltoes -28.206
468
root 0.687787 18.8601 12.4592 -177.813 6.27229 179.651
lowerback -0.836761 0.172193 1.18387
upperback 12.3327 1.64696 -0.0657694
thorax 13.9169 1.52616 -0.373679
lowerneck 1.7008 0.0743002 3.84945
upperneck 12.2704 2.41678 -12.2523
head 3.50819 1.31361 -4.30681
rclavicle -1.64991e-014 7.35503e-015
rhumerus -22.3687 -36.4094 -74.2309
rradius 26.7496
rwrist 9.7696
rhand -16.4126 -0.71259
rfingers 7.12502
rthumb 9.80205 -30.4645
lclavicle -1.64991e-014 7.35503e-015
lhumerus 165.233 186.52 263.681
lradius 22.1538
lwrist -25.4544
lhand -16.3042 -7.5394
lfingers 7.12502
lthumb 9.90671 22.2075
rfemur 514.015 -162.529 -520.259
rtibia 40.1717
rfoot -13.0616 13.7386
rtoes -9.98892
lfemur 364.053 5.15035 342.545
ltibia 28.3135
lfoot -18.8639 4.81416
ltoes -27.646
469
root 0.66397 18.8532 12.5324 -177.723 5.91938 179.759
lowerback -0.800269 0.134392 1.07163
upperback 12.2497 1.59488 -0.118424
thorax 13.7903 1.48616 -0.380723
lowerneck 1.63166 0.0996679 3.94965
upperneck 12.2047 2.38494 -12.0252
head 3.49733 1.29817 -4.2533
rclavicle -5.36719e-015 5.56597e-015
rhumerus -20.7642 -34.2979 -75.9849
rradius 27.8141
rwrist 9.71036
rhand -16.3627 -0.428365
rfingers 7.12502
rthumb 9.85026 -30.178
lclavicle -5.36719e-015 5.56597e-015
lhumerus 166.434 188.363 263.598
lradius 23.148
lwrist -24.2088
lhand -16.1779 -7.53818
lfingers 7.12502
lthumb 10.0286 22.2029
rfemur 513.643 -162.39 -520.12
rtibia 40.2243
rfoot -12.83 13.5269
rtoes -9.7164
lfemur 364.195 5.08832 342.648
ltibia 27.4736
lfoot -19.057 4.80606
ltoes -27.0152
470
root 0.640151 18.8487 12.6055 -177.617 5.54612 179.863
lowerback -0.772015 0.0932606 0.922543
upperback 12.158 1.53561 -0.146259
thorax 13.6569 1.43573 -0.340874
lowerneck 1.5417 0.118622 4.03977
upperneck 12.1967 2.35754 -11.8057
head 3.50754 1.28438 -4.20064
rclavicle 3.18055e-015 -2.28602e-015
rhumerus -19.3366 -32.2077 -77.4505
rradius 28.8334
rwrist 10.0055
rhand -16.2743 0.546894
rfingers 7.12502
rthumb 9.9355 -29.1986
lclavicle 3.18055e-015 -2.28602e-015
lhumerus 167.649 190.013 263.443
lradius 24.1443
lwrist -23.1442
lhand -15.9555 -7.52352
lfingers 7.12502
lthumb 10.2431 22.2071
rfemur 513.272 -162.279 -519.981
rtibia 40.2463
rfoot -12.6426 13.2341
rtoes -9.7362
lfemur 364.248 5.01987 342.744
ltibia 26.7291
lfoot -19.331 4.76424
ltoes -26.3991
471
root 0.616097 18.8459 12.678 -177.527 5.16274 179.987
lowerback -0.731115 0.0646872 0.792942
upperback 12.0714 1.49287 -0.161378
thorax 13.5228 1.3956 -0.295586
lowerneck 1.43754 0.115172 4.15115
upperneck 12.2103 2.30676 -11.6125
head 3.52487 1.2594 -4.16051
rclavicle 8.15017e-015 3.27995e-015
rhumerus -18.0958 -30.1732 -78.6624
rradius 29.837
rwrist 10.5907
rhand -16.2352 1.93682
rfingers 7.12502
rthumb 9.97322 -27.8069
lclavicle 8.15017e-015 3.27995e-015
lhumerus 168.886 191.567 263.208
lradius 25.1532
lwrist -22.294
lhand -15.649 -7.48594
lfingers 7.12502
lthumb 10.5388 22.2298
rfemur 512.956 -162.241 -519.843
rtibia 40.2267
rfoot -12.44 12.9088
rtoes -9.63808
lfemur 364.245 4.89761 342.848
ltibia 26.0987
lfoot -19.6341 4.66285
ltoes -25.4361
472
root 0.590808 18.8441 12.7516 -177.436 4.7794 180.13
lowerback -0.67251 0.0299362 0.680151
upperback 11.9867 1.44015 -0.16611
thorax 13.3801 1.35242 -0.249618
lowerneck 1.25859 0.116318 4.2086
upperneck 12.2831 2.26434 -11.3782
head 3.57282 1.23459 -4.09825
rclavicle -6.5102e-015 1.78906e-015
rhumerus -16.9569 -28.1589 -79.7098
rradius 30.8649
rwrist 11.3948
rhand -16.2441 3.22065
rfingers 7.12502
rthumb 9.96464 -26.5235
lclavicle -6.5102e-015 1.78906e-015
lhumerus 170.147 192.949 262.903
lradius 26.1669
lwrist -21.754
lhand -15.2936 -7.50404
lfingers 7.12502
lthumb 10.8816 22.194
rfemur 512.648 -162.182 -519.688
rtibia 40.1832
rfoot -12.23 12.5935
rtoes -9.54938
lfemur 364.17 4.80913 342.973
ltibia 25.5741
lfoot -19.9702 4.51318
ltoes -24.5321
